<svg xmlns="http://www.w3.org/2000/svg" viewBox="0 0 24 24">
  <path fill="#ff9900" d="M6.763 10.036c0 .296.032.535.088.716.064.182.144.403.256.663.04.08.056.16.056.24 0 .104-.064.208-.2.312l-.663.442c-.096.064-.192.096-.28.096-.112 0-.224-.056-.336-.16-.112-.112-.208-.224-.288-.352-.08-.128-.16-.272-.256-.44-.64.76-1.44 1.14-2.4 1.14-.688 0-1.232-.2-1.648-.592-.416-.392-.624-.920-.624-1.576 0-.696.248-1.256.744-1.688.496-.432 1.168-.648 2.032-.648.28 0 .568.024.872.064.304.048.616.112.936.2v-.656c0-.68-.144-1.160-.424-1.440-.288-.288-.776-.424-1.473-.424-.32 0-.648.04-.992.116-.344.076-.68.180-1.016.312-.152.064-.264.104-.336.128-.072.016-.128.024-.168.024-.144 0-.216-.104-.216-.32v-.504c0-.168.024-.296.072-.384.048-.088.136-.176.264-.248.328-.168.72-.304 1.184-.424.464-.112.96-.172 1.496-.172.744 0 1.28.048 1.616.144.336.096.624.248.864.464.248.216.424.488.528.816.104.328.152.712.152 1.144v1.512zm-3.312 1.24c.272 0 .552-.048.848-.152.296-.104.56-.272.784-.504.136-.144.24-.304.304-.488.064-.184.104-.408.104-.672v-.32c-.248-.064-.512-.12-.792-.152-.28-.04-.56-.056-.832-.056-.592 0-1.024.112-1.296.344-.272.232-.408.56-.408.984 0 .408.104.712.312.928.208.216.504.32.896.32l.08.008zm6.144.784c-.184 0-.312-.032-.384-.104-.072-.072-.136-.208-.184-.408l-2.064-6.8c-.048-.16-.072-.264-.072-.32 0-.128.064-.2.192-.2h.784c.2 0 .336.032.4.104.072.072.128.208.168.408l1.472 5.808 1.368-5.808c.032-.2.088-.336.168-.408.08-.072.216-.104.408-.104h.64c.2 0 .336.032.408.104.08.072.136.208.168.408l1.384 5.88 1.512-5.88c.04-.2.104-.336.168-.408.072-.072.208-.104.4-.104h.744c.128 0 .2.064.2.2 0 .04-.008.08-.016.128-.008.048-.024.112-.048.192l-2.112 6.8c-.048.2-.112.336-.184.408-.072.072-.208.104-.384.104h-.688c-.2 0-.336-.032-.408-.104-.08-.072-.136-.208-.168-.408l-1.360-5.672-1.352 5.672c-.032.2-.088.336-.168.408-.072.072-.208.104-.408.104h-.688zm10.024.168c-.72 0-1.44-.08-2.112-.248-.672-.168-1.192-.392-1.568-.672-.12-.088-.2-.184-.232-.28-.032-.096-.048-.2-.048-.312v-.528c0-.216.08-.32.24-.32.072 0 .144.016.216.048.072.032.168.08.288.128.4.184.832.328 1.296.44.464.112.928.168 1.392.168.736 0 1.304-.128 1.712-.392.408-.264.616-.632.616-1.112 0-.328-.104-.6-.312-.832-.208-.232-.624-.448-1.248-.656l-1.792-.56c-.896-.28-1.56-.696-1.984-1.248-.424-.552-.632-1.168-.632-1.856 0-.536.112-1.008.336-1.424.224-.416.528-.768.912-1.056.384-.288.832-.512 1.336-.664.504-.152 1.048-.232 1.624-.232.312 0 .632.024.944.08.312.056.6.128.88.216.264.088.512.184.728.288.216.104.384.208.504.312.096.08.168.168.216.264.048.096.072.2.072.312v.48c0 .216-.08.328-.24.328-.088 0-.224-.04-.408-.128-.616-.288-1.304-.432-2.064-.432-.672 0-1.2.112-1.576.344-.376.232-.568.576-.568 1.044 0 .328.112.608.336.848.224.24.672.472 1.336.696l1.752.56c.88.28 1.525.672 1.936 1.184.408.512.616 1.096.616 1.744 0 .552-.112 1.040-.336 1.472-.224.432-.536.8-.936 1.104-.4.304-.872.536-1.424.696-.552.16-1.152.24-1.8.24z"/>
</svg>