<svg xmlns="http://www.w3.org/2000/svg" viewBox="0 0 24 24">
  <path fill="#2496ed" d="M13.983 11.078h2.119c.186 0 .329-.14.329-.329V8.632c0-.186-.143-.329-.329-.329h-2.119c-.186 0-.329.143-.329.329v2.117c0 .186.143.329.329.329zM11.1 11.078h2.119c.186 0 .329-.14.329-.329V8.632c0-.186-.143-.329-.329-.329H11.1c-.186 0-.329.143-.329.329v2.117c0 .186.143.329.329.329zM8.217 11.078h2.119c.186 0 .329-.14.329-.329V8.632c0-.186-.143-.329-.329-.329H8.217c-.186 0-.329.143-.329.329v2.117c0 .186.143.329.329.329zM5.334 11.078h2.119c.186 0 .329-.14.329-.329V8.632c0-.186-.143-.329-.329-.329H5.334c-.186 0-.329.143-.329.329v2.117c0 .186.143.329.329.329zM2.451 11.078h2.119c.186 0 .329-.14.329-.329V8.632c0-.186-.143-.329-.329-.329H2.451c-.186 0-.329.143-.329.329v2.117c0 .186.143.329.329.329zM11.1 8.19h2.119c.186 0 .329-.14.329-.329V5.744c0-.186-.143-.329-.329-.329H11.1c-.186 0-.329.143-.329.329v2.117c0 .186.143.329.329.329zM8.217 8.19h2.119c.186 0 .329-.14.329-.329V5.744c0-.186-.143-.329-.329-.329H8.217c-.186 0-.329.143-.329.329v2.117c0 .186.143.329.329.329zM5.334 8.19h2.119c.186 0 .329-.14.329-.329V5.744c0-.186-.143-.329-.329-.329H5.334c-.186 0-.329.143-.329.329v2.117c0 .186.143.329.329.329zM11.1 5.302h2.119c.186 0 .329-.14.329-.329V2.856c0-.186-.143-.329-.329-.329H11.1c-.186 0-.329.143-.329.329v2.117c0 .186.143.329.329.329zM22.326 9.272c-.186-.372-.558-.651-.93-.791-.279-.093-.651-.093-1.023-.093-.372 0-.744.093-1.023.093-.651.186-1.395.558-1.767 1.302-.558-.465-1.395-.651-2.232-.651H1.535c-.186 0-.372.186-.372.372 0 .465.093.93.279 1.302.186.372.372.651.651.93.279.279.651.465 1.023.651.372.186.744.279 1.116.279h.372c.186 0 .372-.093.465-.279.093-.186.093-.372 0-.558-.093-.186-.279-.279-.465-.279h-.372c-.186 0-.372-.093-.465-.186-.093-.093-.186-.186-.186-.372 0-.186.093-.372.186-.465.093-.093.279-.186.465-.186h.372c.186 0 .372.093.465.186.093.093.186.186.186.372 0 .186-.093.372-.186.465-.093.093-.279.186-.465.186h-.372c-.186 0-.372.093-.465.279-.093.186-.093.372 0 .558.093.186.279.279.465.279h.372c.372 0 .744-.093 1.116-.279.372-.186.651-.372 1.023-.651.279-.279.465-.558.651-.93.186-.372.279-.837.279-1.302 0-.186-.186-.372-.372-.372z"/>
</svg>