<svg xmlns="http://www.w3.org/2000/svg" viewBox="0 0 24 24">
  <path fill="#00add8" d="M1.811 10.231c-.047 0-.058-.023-.035-.059l.246-.315c.023-.035.081-.058.128-.058h4.172c.046 0 .058.035.035.07l-.199.303c-.023.036-.082.059-.117.059H1.811zM.047 11.306c-.047 0-.058-.023-.035-.058l.245-.316c.024-.035.082-.058.129-.058h5.516c.047 0 .07.035.058.07l-.093.28c-.012.047-.058.070-.105.070H.047zM2.828 12.381c-.047 0-.07-.024-.047-.059l.163-.292c.023-.047.070-.070.117-.070h2.337c.047 0 .070.047.070.106l-.012.198c0 .07-.023.094-.082.094H2.828z"/>
  <path fill="#00add8" d="M8.352 11.6c-.105.07-.164.175-.164.315 0 .199.14.339.351.339.2 0 .351-.14.351-.339 0-.14-.058-.246-.163-.315-.07-.047-.152-.07-.234-.07s-.164.023-.234.07h-.001zm.374-.584c.304 0 .550.246.550.55 0 .304-.246.55-.55.55-.304 0-.55-.246-.55-.55 0-.304.246-.55.55-.55zM10.27 11.6c-.105.07-.164.175-.164.315 0 .199.14.339.351.339.2 0 .351-.14.351-.339 0-.14-.058-.246-.163-.315-.07-.047-.152-.07-.234-.07s-.164.023-.234.07h-.001zm.374-.584c.304 0 .550.246.550.55 0 .304-.246.55-.55.55-.304 0-.55-.246-.55-.55 0-.304.246-.55.55-.55zM11.77 11.6c-.105.07-.164.175-.164.315 0 .199.14.339.351.339.2 0 .351-.14.351-.339 0-.14-.058-.246-.163-.315-.07-.047-.152-.07-.234-.07s-.164.023-.234.07h-.001zm.374-.584c.304 0 .550.246.550.55 0 .304-.246.55-.55.55-.304 0-.55-.246-.55-.55 0-.304.246-.55.55-.55zM13.27 11.6c-.105.07-.164.175-.164.315 0 .199.14.339.351.339.2 0 .351-.14.351-.339 0-.14-.058-.246-.163-.315-.07-.047-.152-.07-.234-.07s-.164.023-.234.07h-.001zm.374-.584c.304 0 .550.246.550.55 0 .304-.246.55-.55.55-.304 0-.55-.246-.55-.55 0-.304.246-.55.55-.55z"/>
  <path fill="#00add8" d="M8.199 13.625c0-.024.012-.047.035-.047h.292c.023 0 .035.023.035.047v2.52c0 .024-.012.047-.035.047h-.292c-.023 0-.035-.023-.035-.047v-2.52zM9.477 13.625c0-.024.012-.047.035-.047h.292c.023 0 .035.023.035.047v2.52c0 .024-.012.047-.035.047h-.292c-.023 0-.035-.023-.035-.047v-2.52zM10.754 13.625c0-.024.012-.047.035-.047h.292c.023 0 .035.023.035.047v2.52c0 .024-.012.047-.035.047h-.292c-.023 0-.035-.023-.035-.047v-2.52z"/>
</svg>