<svg xmlns="http://www.w3.org/2000/svg" viewBox="0 0 24 24">
  <path fill="#231f20" d="M12 2c5.523 0 10 4.477 10 10s-4.477 10-10 10S2 17.523 2 12 6.477 2 12 2zm0 1.5c-4.687 0-8.5 3.813-8.5 8.5s3.813 8.5 8.5 8.5 8.5-3.813 8.5-8.5-3.813-8.5-8.5-8.5z"/>
  <path fill="#231f20" d="M8.5 8.5c.828 0 1.5.672 1.5 1.5s-.672 1.5-1.5 1.5S7 10.828 7 10s.672-1.5 1.5-1.5z"/>
  <path fill="#231f20" d="M15.5 8.5c.828 0 1.5.672 1.5 1.5s-.672 1.5-1.5 1.5S14 10.828 14 10s.672-1.5 1.5-1.5z"/>
  <path fill="#231f20" d="M12 13c.828 0 1.5.672 1.5 1.5s-.672 1.5-1.5 1.5-1.5-.672-1.5-1.5.672-1.5 1.5-1.5z"/>
  <path fill="#231f20" d="M8.5 13c.828 0 1.5.672 1.5 1.5s-.672 1.5-1.5 1.5S7 15.328 7 14.5s.672-1.5 1.5-1.5z"/>
  <path fill="#231f20" d="M15.5 13c.828 0 1.5.672 1.5 1.5s-.672 1.5-1.5 1.5S14 15.328 14 14.5s.672-1.5 1.5-1.5z"/>
</svg>