<svg xmlns="http://www.w3.org/2000/svg" viewBox="0 0 24 24">
  <path fill="#68a063" d="M12 1.85c-.27 0-.55.07-.78.2l-7.44 4.3c-.48.28-.78.8-.78 1.36v8.58c0 .56.3 1.08.78 1.36l1.95 1.12c.95.47 1.29.47 1.71.47 1.4 0 2.21-.85 2.21-2.33V8.44c0-.12-.1-.22-.22-.22h-.97c-.12 0-.22.1-.22.22v7.47c0 .58-.23.76-.85.76-.33 0-.58-.08-.85-.24l-1.86-1.07c-.05-.03-.08-.08-.08-.14V7.71c0-.06.03-.11.08-.14L12 3.27c.05-.03.11-.03.16 0l7.44 4.3c.05.03.08.08.08.14v8.58c0 .06-.03.11-.08.14L12.08 20.73c-.05.03-.11.03-.16 0L10.15 19.65c-.05-.03-.11-.03-.16 0-.73.41-.87.45-1.55.45-.36 0-.56-.07-.7-.18-.14-.1-.22-.26-.22-.43 0-.31.16-.61.43-.77l1.85-1.07c.12-.07.2-.2.2-.34V8.44c0-.12-.1-.22-.22-.22h-.97c-.12 0-.22.1-.22.22v8.87c0 .35-.18.68-.48.86l-1.92 1.11c-.14.08-.3.13-.47.13-.17 0-.33-.05-.47-.13l-1.92-1.11c-.3-.18-.48-.51-.48-.86V7.71c0-.35.18-.68.48-.86l7.44-4.3c.23-.13.51-.2.78-.2z"/>
  <path fill="#68a063" d="M14.67 8.34c-2.8 0-3.35 1.29-3.35 2.37 0 .58.23.86.61 1.15l3.15 1.83c.13.07.2.2.2.34v.45c0 .12-.1.22-.22.22h-1.1c-.12 0-.22-.1-.22-.22v-.27c0-.12-.1-.22-.22-.22h-.97c-.12 0-.22.1-.22.22v.27c0 .95.51 1.49 1.63 1.49h1.1c.85 0 1.63-.68 1.63-1.49v-.45c0-.59-.32-1.15-.85-1.44l-3.15-1.83c-.32-.19-.46-.42-.46-.71 0-.69.61-.95 1.52-.95 1.22 0 1.83.53 1.83 1.46v.11c0 .12.1.22.22.22h.97c.12 0 .22-.1.22-.22v-.11c0-1.53-.93-2.4-3.24-2.4z"/>
</svg>