<svg xmlns="http://www.w3.org/2000/svg" viewBox="0 0 24 24">
  <path fill="#336791" d="M17.128 0c.324 0 .64.084.926.244 1.154.636 1.498 2.212 1.498 3.477 0 1.46-.49 2.75-1.353 3.654-.54.566-1.108.85-1.71.85-.14 0-.28-.022-.42-.066-.65-.204-1.166-.752-1.51-1.504-.266-.584-.426-1.274-.426-2.054 0-1.394.502-2.538 1.32-3.138.36-.264.806-.4 1.26-.4.038 0 .077.002.115.004.196.012.39.054.576.133zM6.89 0c.324 0 .64.084.926.244 1.154.636 1.498 2.212 1.498 3.477 0 1.46-.49 2.75-1.353 3.654-.54.566-1.108.85-1.71.85-.14 0-.28-.022-.42-.066-.65-.204-1.166-.752-1.51-1.504-.266-.584-.426-1.274-.426-2.054 0-1.394.502-2.538 1.32-3.138.36-.264.806-.4 1.26-.4.038 0 .077.002.115.004.196.012.39.054.576.133zM19.5 15.5c0 2.5-1.5 4.5-4 4.5s-4-2-4-4.5c0-2.5 1.5-4.5 4-4.5s4 2 4 4.5z"/>
</svg>