<svg xmlns="http://www.w3.org/2000/svg" viewBox="0 0 24 24">
  <path fill="#ff3e00" d="M20.24 8.11c-.53-3.34-2.94-6.17-6.18-7.26-3.19-1.08-6.7-.38-9.07 1.81-1.43 1.31-2.35 3.14-2.53 5.08-.19 1.99.32 3.98 1.44 5.63.26.39.57.75.91 1.08-.13-.47-.21-.95-.22-1.44-.05-1.86.59-3.69 1.77-5.08 1.29-1.52 3.15-2.48 5.13-2.65 1.98-.17 3.97.52 5.48 1.91 1.51 1.39 2.44 3.35 2.57 5.41.13 2.06-.54 4.09-1.84 5.61-1.3 1.52-3.15 2.48-5.13 2.65-1.98.17-3.97-.52-5.48-1.91-.75-.69-1.35-1.51-1.77-2.41-.42-.9-.66-1.87-.7-2.85-.04-.98.12-1.95.46-2.87.34-.92.85-1.76 1.49-2.48.64-.72 1.4-1.31 2.24-1.74.84-.43 1.75-.69 2.68-.77.93-.08 1.87.05 2.77.37.9.32 1.74.82 2.46 1.47.72.65 1.31 1.42 1.73 2.28.42.86.66 1.79.7 2.73.04.94-.12 1.87-.46 2.75-.34.88-.85 1.68-1.49 2.36-.64.68-1.4 1.23-2.24 1.62-.84.39-1.75.61-2.68.65"/>
  <path fill="#ff6600" d="M3.76 15.89c.53 3.34 2.94 6.17 6.18 7.26 3.19 1.08 6.7.38 9.07-1.81 1.43-1.31 2.35-3.14 2.53-5.08.19-1.99-.32-3.98-1.44-5.63-.26-.39-.57-.75-.91-1.08.13.47.21.95.22 1.44.05 1.86-.59 3.69-1.77 5.08-1.29 1.52-3.15 2.48-5.13 2.65-1.98.17-3.97-.52-5.48-1.91-1.51-1.39-2.44-3.35-2.57-5.41-.13-2.06.54-4.09 1.84-5.61 1.3-1.52 3.15-2.48 5.13-2.65 1.98-.17 3.97.52 5.48 1.91.75.69 1.35 1.51 1.77 2.41.42.9.66 1.87.7 2.85.04.98-.12 1.95-.46 2.87-.34.92-.85 1.76-1.49 2.48-.64.72-1.4 1.31-2.24 1.74-.84.43-1.75.69-2.68.77-.93.08-1.87-.05-2.77-.37-.9-.32-1.74-.82-2.46-1.47-.72-.65-1.31-1.42-1.73-2.28-.42-.86-.66-1.79-.7-2.73-.04-.94.12-1.87.46-2.75.34-.88.85-1.68 1.49-2.36.64-.68 1.4-1.23 2.24-1.62.84-.39 1.75-.61 2.68-.65"/>
</svg>